# xmcd CD database file
#
# Track frame offsets:
#	150
#	23105
#	38863
#	57783
#	85191
#	105066
#	134010
#	165491
#	184443
#	194637
#	211709
#
# Disc length: 3104 seconds
#
# Revision: 0
# Processed by: cddbd v1.5.2PL0 Copyright (c) Steve Scherf et al.
# Submitted via: CDex 1.51
#
DISCID=8f0c1e0b
DTITLE=Paul Zauner - Ho Ho Ho
DYEAR=2008
DGENRE=Jazz
TTITLE0=O Sanctissima (O du Fröhliche)
TTITLE1=Leise rieselt der Schnee
TTITLE2=Little Drummer Boy
TTITLE3=Still, still, still
TTITLE4=Angels we have heard on high
TTITLE5=The Holly and the Ivy
TTITLE6=Down by the Riverside
TTITLE7=Es wird scho glei dumpa
TTITLE8=Silent
TTITLE9=Medley: Winter Wonderland - Let it snow
TTITLE10=Stille Nacht
EXTD=YEAR: 2008
EXTT0=
EXTT1=
EXTT2=
EXTT3=
EXTT4=
EXTT5=
EXTT6=
EXTT7=
EXTT8=
EXTT9=
EXTT10=
PLAYORDER=
